<svg width="101" height="101" viewBox="0 0 101 101" fill="none" xmlns="http://www.w3.org/2000/svg">
<g clip-path="url(#clip0_2184_61667)">
<path d="M3.67504 21.2787C4.0894 17.5882 6.595 14.7379 10.2479 14.0675C16.0182 13.0086 26.9387 11.75 46.25 11.75C65.5612 11.75 76.4817 13.0086 82.2521 14.0675C85.905 14.7379 88.4106 17.5882 88.825 21.2787C89.3862 26.2779 90 35.0019 90 49.25C90 63.4981 89.3862 72.2221 88.825 77.2213C88.4106 80.9119 85.905 83.7621 82.2521 84.4325C76.4819 85.4915 65.5612 86.75 46.25 86.75C26.9387 86.75 16.0182 85.4915 10.2479 84.4325C6.595 83.7621 4.0894 80.9119 3.67504 77.2213C3.11377 72.2221 2.5 63.4981 2.5 49.25C2.5 35.0019 3.11377 26.2779 3.67504 21.2787Z" fill="#F7F7F7"/>
<path d="M89.0337 23.2558C89.1354 26.4283 84.5329 30.719 84.4997 30.7498C84.4987 30.7508 84.5006 30.7491 84.4995 30.75C84.4662 30.7812 55.7522 57.5833 46.2442 57.5833C36.7626 57.5833 8.22833 30.4274 8.03683 30.2451C8.03093 30.2395 8.03578 30.2441 8.02983 30.2385C7.84338 30.0638 3.40178 25.8671 3.50166 22.75C3.59646 19.566 4.98633 14.8851 10.2421 14.0675C15.4978 13.25 26.933 11.75 46.2442 11.75C65.5555 11.75 76.476 13.0086 82.2462 14.0675C86.9996 14.9399 88.8751 18.3075 89.0337 23.2558Z" fill="#E5E5E5"/>
<path d="M89.0337 23.2558C89.1354 26.4283 84.5329 30.719 84.4997 30.7498C84.4987 30.7508 84.5006 30.7491 84.4995 30.75C84.4662 30.7812 55.7522 57.5833 46.2442 57.5833C36.7626 57.5833 8.22833 30.4274 8.03683 30.2451C8.03093 30.2395 8.03578 30.2441 8.02983 30.2385C7.84338 30.0638 3.40178 25.8671 3.50166 22.75C3.59646 19.566 4.98633 14.8851 10.2421 14.0675C15.4978 13.25 26.933 11.75 46.2442 11.75C65.5555 11.75 76.476 13.0086 82.2462 14.0675C86.9996 14.9399 88.8751 18.3075 89.0337 23.2558Z" fill="url(#paint0_linear_2184_61667)" fill-opacity="0.5"/>
<path d="M79.125 96.0625C89.9981 96.0625 98.8125 87.2481 98.8125 76.375C98.8125 65.5019 89.9981 56.6875 79.125 56.6875C68.2519 56.6875 59.4375 65.5019 59.4375 76.375C59.4375 87.2481 68.2519 96.0625 79.125 96.0625Z" fill="#E5E5E5"/>
<path d="M79.125 96.0625C89.9981 96.0625 98.8125 87.2481 98.8125 76.375C98.8125 65.5019 89.9981 56.6875 79.125 56.6875C68.2519 56.6875 59.4375 65.5019 59.4375 76.375C59.4375 87.2481 68.2519 96.0625 79.125 96.0625Z" fill="url(#paint1_linear_2184_61667)" fill-opacity="0.5"/>
<path fill-rule="evenodd" clip-rule="evenodd" d="M89.16 68.0558C89.9595 68.6747 90.1925 69.8587 89.6842 70.7712C85.7402 77.851 82.1515 82.5616 80.0307 85.083C78.8901 86.4392 77.056 86.6132 75.7627 85.4299C73.9162 83.7405 71.2023 80.8723 68.6053 76.6946C68.1158 75.9073 68.2219 74.8576 68.8318 74.1768L70.3956 72.4314C71.1236 71.6189 72.3203 71.5965 73.0545 72.4025C75.6403 75.2408 77.6458 77.8145 77.6458 77.8145C77.6458 77.8145 80.5927 73.0338 85.1689 67.2374C85.8013 66.4363 86.8925 66.3008 87.6837 66.9132L89.16 68.0558Z" fill="#F47A20"/>
<rect x="10.5" y="71.75" width="28" height="6.00001" rx="2" fill="#747373"/>
<rect x="10.5" y="62.75" width="18" height="6" rx="2" fill="#747373"/>
</g>
<defs>
<linearGradient id="paint0_linear_2184_61667" x1="46.2435" y1="11.75" x2="46.2435" y2="57.5833" gradientUnits="userSpaceOnUse">
<stop stop-color="white"/>
<stop offset="1" stop-color="white" stop-opacity="0"/>
</linearGradient>
<linearGradient id="paint1_linear_2184_61667" x1="79.125" y1="56.6875" x2="79.125" y2="96.0625" gradientUnits="userSpaceOnUse">
<stop stop-color="white"/>
<stop offset="1" stop-color="white" stop-opacity="0"/>
</linearGradient>
<clipPath id="clip0_2184_61667">
<rect width="100" height="100" fill="white" transform="translate(0.5 0.75)"/>
</clipPath>
</defs>
</svg>
